<svg width="1094.532" height="107.523" viewBox="0 0 1094.532 107.523" xmlns="http://www.w3.org/2000/svg"><g id="svgGroup" stroke-linecap="round" fill-rule="evenodd" font-size="9pt" stroke="#00000000" stroke-width="0.25mm" fill="#ffffff" style="stroke:#00000000;stroke-width:0.25mm;fill:#ffffff"><path d="M 348.12 106.056 L 333.105 106.056 A 1.949 1.949 0 0 1 332.663 106.011 Q 332.06 105.87 331.956 105.292 A 1.468 1.468 0 0 1 331.934 105.031 L 331.787 2.858 A 1.687 1.687 0 0 1 331.845 2.394 Q 332.048 1.686 332.959 1.686 L 346.509 1.686 L 371.851 60.793 L 371.118 2.858 A 1.487 1.487 0 0 1 371.191 2.373 Q 371.427 1.686 372.437 1.686 L 387.305 1.686 A 0.923 0.923 0 0 1 387.71 1.769 Q 388.1 1.957 388.169 2.573 A 2.563 2.563 0 0 1 388.184 2.858 L 388.33 105.177 Q 388.33 105.953 387.759 106.044 A 1.028 1.028 0 0 1 387.598 106.056 L 374.414 106.056 L 348.413 50.832 L 349.512 104.885 A 1.402 1.402 0 0 1 349.43 105.383 Q 349.198 105.994 348.308 106.051 A 2.974 2.974 0 0 1 348.12 106.056 Z M 219.067 106.056 L 202.075 106.056 A 0.663 0.663 0 0 1 201.819 106.011 Q 201.532 105.891 201.495 105.46 A 1.579 1.579 0 0 1 201.489 105.324 L 201.782 2.419 A 1.344 1.344 0 0 1 201.806 2.151 Q 201.89 1.739 202.267 1.692 A 0.821 0.821 0 0 1 202.368 1.686 L 219.214 1.686 A 0.663 0.663 0 0 1 219.47 1.732 Q 219.757 1.851 219.794 2.282 A 1.579 1.579 0 0 1 219.8 2.419 L 219.8 37.941 L 243.311 2.272 A 2.987 2.987 0 0 1 243.63 1.992 Q 244.031 1.692 244.396 1.686 A 0.899 0.899 0 0 1 244.409 1.686 L 261.621 1.686 A 1.094 1.094 0 0 1 261.77 1.696 Q 262.234 1.76 261.914 2.272 L 235.986 43.654 L 265.063 105.47 A 0.814 0.814 0 0 1 265.114 105.563 Q 265.329 106.033 264.422 106.055 A 3.778 3.778 0 0 1 264.331 106.056 L 246.021 106.056 A 1.374 1.374 0 0 1 245.7 106.022 Q 245.268 105.918 245.15 105.501 A 0.999 0.999 0 0 1 245.142 105.47 L 224.854 61.379 L 219.653 69.582 L 219.653 105.324 A 1.344 1.344 0 0 1 219.629 105.591 Q 219.545 106.004 219.169 106.05 A 0.821 0.821 0 0 1 219.067 106.056 Z M 317.871 106.056 L 269.385 106.056 A 0.663 0.663 0 0 1 269.128 106.011 Q 268.842 105.891 268.804 105.46 A 1.579 1.579 0 0 1 268.799 105.324 L 268.945 2.272 A 0.844 0.844 0 0 1 268.974 2.04 Q 269.049 1.78 269.314 1.711 A 0.863 0.863 0 0 1 269.531 1.686 L 317.725 1.686 A 0.663 0.663 0 0 1 317.981 1.732 Q 318.268 1.851 318.305 2.282 A 1.579 1.579 0 0 1 318.311 2.419 L 318.311 19.191 A 0.844 0.844 0 0 1 318.282 19.423 Q 318.207 19.683 317.942 19.752 A 0.863 0.863 0 0 1 317.725 19.777 L 286.963 19.777 L 286.963 43.215 L 317.725 43.215 A 0.844 0.844 0 0 1 317.956 43.244 Q 318.217 43.318 318.286 43.584 A 0.863 0.863 0 0 1 318.311 43.801 L 318.457 60.793 A 0.844 0.844 0 0 1 318.428 61.025 Q 318.354 61.285 318.088 61.354 A 0.863 0.863 0 0 1 317.871 61.379 L 286.963 61.379 L 286.963 87.599 L 317.871 87.599 A 0.663 0.663 0 0 1 318.127 87.645 Q 318.414 87.765 318.451 88.195 A 1.579 1.579 0 0 1 318.457 88.332 L 318.457 105.47 A 0.844 0.844 0 0 1 318.428 105.702 Q 318.354 105.962 318.088 106.031 A 0.863 0.863 0 0 1 317.871 106.056 Z M 630.908 106.056 L 582.422 106.056 A 0.663 0.663 0 0 1 582.166 106.011 Q 581.879 105.891 581.842 105.46 A 1.579 1.579 0 0 1 581.836 105.324 L 581.982 2.272 A 0.844 0.844 0 0 1 582.011 2.04 Q 582.086 1.78 582.351 1.711 A 0.863 0.863 0 0 1 582.568 1.686 L 630.762 1.686 A 0.663 0.663 0 0 1 631.018 1.732 Q 631.305 1.851 631.342 2.282 A 1.579 1.579 0 0 1 631.348 2.419 L 631.348 19.191 A 0.844 0.844 0 0 1 631.319 19.423 Q 631.244 19.683 630.979 19.752 A 0.863 0.863 0 0 1 630.762 19.777 L 600 19.777 L 600 43.215 L 630.762 43.215 A 0.844 0.844 0 0 1 630.994 43.244 Q 631.254 43.318 631.323 43.584 A 0.863 0.863 0 0 1 631.348 43.801 L 631.494 60.793 A 0.844 0.844 0 0 1 631.465 61.025 Q 631.391 61.285 631.125 61.354 A 0.863 0.863 0 0 1 630.908 61.379 L 600 61.379 L 600 87.599 L 630.908 87.599 A 0.663 0.663 0 0 1 631.165 87.645 Q 631.451 87.765 631.489 88.195 A 1.579 1.579 0 0 1 631.494 88.332 L 631.494 105.47 A 0.844 0.844 0 0 1 631.465 105.702 Q 631.391 105.962 631.125 106.031 A 0.863 0.863 0 0 1 630.908 106.056 Z M 758.789 106.056 L 710.303 106.056 A 0.663 0.663 0 0 1 710.046 106.011 Q 709.76 105.891 709.722 105.46 A 1.579 1.579 0 0 1 709.717 105.324 L 709.863 2.272 A 0.844 0.844 0 0 1 709.892 2.04 Q 709.967 1.78 710.232 1.711 A 0.863 0.863 0 0 1 710.449 1.686 L 758.643 1.686 A 0.663 0.663 0 0 1 758.899 1.732 Q 759.185 1.851 759.223 2.282 A 1.579 1.579 0 0 1 759.229 2.419 L 759.229 19.191 A 0.844 0.844 0 0 1 759.199 19.423 Q 759.125 19.683 758.86 19.752 A 0.863 0.863 0 0 1 758.643 19.777 L 727.881 19.777 L 727.881 43.215 L 758.643 43.215 A 0.844 0.844 0 0 1 758.874 43.244 Q 759.134 43.318 759.204 43.584 A 0.863 0.863 0 0 1 759.229 43.801 L 759.375 60.793 A 0.844 0.844 0 0 1 759.346 61.025 Q 759.271 61.285 759.006 61.354 A 0.863 0.863 0 0 1 758.789 61.379 L 727.881 61.379 L 727.881 87.599 L 758.789 87.599 A 0.663 0.663 0 0 1 759.045 87.645 Q 759.332 87.765 759.369 88.195 A 1.579 1.579 0 0 1 759.375 88.332 L 759.375 105.47 A 0.844 0.844 0 0 1 759.346 105.702 Q 759.271 105.962 759.006 106.031 A 0.863 0.863 0 0 1 758.789 106.056 Z M 1019.531 106.056 L 971.045 106.056 A 0.663 0.663 0 0 1 970.789 106.011 Q 970.502 105.891 970.465 105.46 A 1.579 1.579 0 0 1 970.459 105.324 L 970.605 2.272 A 0.844 0.844 0 0 1 970.635 2.04 Q 970.709 1.78 970.974 1.711 A 0.863 0.863 0 0 1 971.191 1.686 L 1019.385 1.686 A 0.663 0.663 0 0 1 1019.641 1.732 Q 1019.928 1.851 1019.965 2.282 A 1.579 1.579 0 0 1 1019.971 2.419 L 1019.971 19.191 A 0.844 0.844 0 0 1 1019.942 19.423 Q 1019.867 19.683 1019.602 19.752 A 0.863 0.863 0 0 1 1019.385 19.777 L 988.623 19.777 L 988.623 43.215 L 1019.385 43.215 A 0.844 0.844 0 0 1 1019.617 43.244 Q 1019.877 43.318 1019.946 43.584 A 0.863 0.863 0 0 1 1019.971 43.801 L 1020.117 60.793 A 0.844 0.844 0 0 1 1020.088 61.025 Q 1020.014 61.285 1019.748 61.354 A 0.863 0.863 0 0 1 1019.531 61.379 L 988.623 61.379 L 988.623 87.599 L 1019.531 87.599 A 0.663 0.663 0 0 1 1019.788 87.645 Q 1020.074 87.765 1020.112 88.195 A 1.579 1.579 0 0 1 1020.117 88.332 L 1020.117 105.47 A 0.844 0.844 0 0 1 1020.088 105.702 Q 1020.014 105.962 1019.748 106.031 A 0.863 0.863 0 0 1 1019.531 106.056 Z M 131.836 76.979 L 131.982 30.177 A 31.49 31.49 0 0 1 133.584 20.027 A 28.679 28.679 0 0 1 135.791 15.09 Q 139.6 8.278 146.301 4.14 A 27.804 27.804 0 0 1 161.206 0.002 A 29.505 29.505 0 0 1 170.362 1.385 A 26.212 26.212 0 0 1 176.074 4.03 A 29.95 29.95 0 0 1 186.584 14.906 A 29.956 29.956 0 0 1 190.488 29.131 A 35.593 35.593 0 0 1 190.503 30.177 L 190.503 37.062 A 0.844 0.844 0 0 1 190.474 37.294 Q 190.399 37.554 190.134 37.623 A 0.863 0.863 0 0 1 189.917 37.648 L 173.071 37.648 A 0.844 0.844 0 0 1 172.839 37.619 Q 172.579 37.545 172.51 37.279 A 0.863 0.863 0 0 1 172.485 37.062 L 172.485 30.177 A 12.39 12.39 0 0 0 169.263 21.608 Q 166.04 18.019 161.206 18.019 A 12.442 12.442 0 0 0 157.754 18.472 A 9.061 9.061 0 0 0 153.003 21.681 Q 150.146 25.344 150.146 30.177 L 150.146 76.979 A 15.287 15.287 0 0 0 150.673 81.092 A 11.634 11.634 0 0 0 153.369 85.951 A 10.881 10.881 0 0 0 156.94 88.561 A 10.396 10.396 0 0 0 161.206 89.43 A 9.972 9.972 0 0 0 168.697 86.218 A 12.954 12.954 0 0 0 169.263 85.585 A 13.754 13.754 0 0 0 171.869 80.97 A 12.888 12.888 0 0 0 172.485 76.979 L 172.485 70.021 A 0.844 0.844 0 0 1 172.514 69.789 Q 172.589 69.529 172.854 69.46 A 0.863 0.863 0 0 1 173.071 69.435 L 190.063 69.435 A 0.844 0.844 0 0 1 190.295 69.464 Q 190.555 69.539 190.624 69.804 A 0.863 0.863 0 0 1 190.649 70.021 L 190.649 76.979 A 30.928 30.928 0 0 1 187.937 89.925 A 30.216 30.216 0 0 1 186.694 92.36 A 31.692 31.692 0 0 1 176.074 103.383 A 27.215 27.215 0 0 1 161.978 107.512 A 32.641 32.641 0 0 1 161.206 107.521 A 28.047 28.047 0 0 1 146.338 103.42 A 30.169 30.169 0 0 1 135.754 92.397 A 30.489 30.489 0 0 1 131.852 78.068 A 36.201 36.201 0 0 1 131.836 76.979 Z M 679.834 106.056 L 661.67 106.056 A 0.861 0.861 0 0 1 661.369 106.008 Q 660.992 105.868 660.938 105.324 L 640.21 2.272 A 0.891 0.891 0 0 1 640.193 2.19 Q 640.128 1.762 640.61 1.698 A 1.417 1.417 0 0 1 640.796 1.686 L 657.788 1.686 Q 658.374 1.686 658.521 2.272 L 670.825 70.973 L 682.837 2.272 A 0.961 0.961 0 0 1 682.946 2.002 Q 683.139 1.686 683.569 1.686 L 700.342 1.686 A 1.655 1.655 0 0 1 700.557 1.699 Q 701.09 1.769 700.943 2.229 A 0.956 0.956 0 0 1 700.928 2.272 L 680.566 105.324 A 1.216 1.216 0 0 1 680.503 105.618 Q 680.344 106.056 679.834 106.056 Z M 1051.025 106.056 L 1034.033 106.056 A 0.663 0.663 0 0 1 1033.777 106.011 Q 1033.49 105.891 1033.453 105.46 A 1.579 1.579 0 0 1 1033.447 105.324 L 1033.74 2.272 A 0.844 0.844 0 0 1 1033.769 2.04 Q 1033.844 1.78 1034.109 1.711 A 0.863 0.863 0 0 1 1034.326 1.686 L 1064.648 1.686 A 29.225 29.225 0 0 1 1079.59 5.641 A 30.433 30.433 0 0 1 1090.466 16.261 A 27.984 27.984 0 0 1 1094.489 29.657 A 33.843 33.843 0 0 1 1094.531 31.349 A 30.965 30.965 0 0 1 1094.013 37.128 A 25.087 25.087 0 0 1 1092.847 41.31 Q 1091.162 45.778 1088.928 48.854 A 38.271 38.271 0 0 1 1087.571 50.619 Q 1086.122 52.388 1084.863 53.395 A 30.575 30.575 0 0 1 1092.993 74.562 L 1093.14 105.324 A 1.054 1.054 0 0 1 1093.103 105.614 Q 1092.977 106.056 1092.407 106.056 L 1075.415 106.056 A 1.148 1.148 0 0 1 1075.203 106.039 Q 1074.85 105.972 1074.83 105.656 A 0.616 0.616 0 0 1 1074.829 105.617 L 1074.829 74.562 Q 1074.829 69.142 1071.021 65.187 Q 1067.212 61.232 1061.646 61.232 L 1051.758 61.232 L 1051.611 105.324 A 1.344 1.344 0 0 1 1051.587 105.591 Q 1051.503 106.004 1051.127 106.05 A 0.821 0.821 0 0 1 1051.025 106.056 Z M 64.526 105.324 L 83.13 2.272 A 0.961 0.961 0 0 1 83.239 2.002 Q 83.432 1.686 83.862 1.686 L 105.615 1.686 Q 106.201 1.686 106.348 2.272 L 124.219 105.324 Q 124.279 105.927 123.843 106.034 A 0.887 0.887 0 0 1 123.633 106.056 L 107.007 106.056 A 1.068 1.068 0 0 1 106.691 106.013 Q 106.257 105.879 106.201 105.324 L 104.59 94.338 L 84.155 94.338 L 82.544 105.324 A 1.216 1.216 0 0 1 82.481 105.618 Q 82.321 106.056 81.812 106.056 L 65.112 106.056 A 0.663 0.663 0 0 1 64.856 106.011 Q 64.569 105.891 64.532 105.46 A 1.579 1.579 0 0 1 64.526 105.324 Z M 821.777 106.056 L 773.291 106.056 A 0.663 0.663 0 0 1 773.035 106.011 Q 772.748 105.891 772.711 105.46 A 1.579 1.579 0 0 1 772.705 105.324 L 772.852 2.419 A 1.054 1.054 0 0 1 772.888 2.129 Q 773.015 1.686 773.584 1.686 L 790.283 1.686 A 1.054 1.054 0 0 1 790.573 1.723 Q 791.016 1.849 791.016 2.419 L 790.869 87.599 L 821.777 87.599 A 1.054 1.054 0 0 1 822.067 87.636 Q 822.51 87.762 822.51 88.332 L 822.51 105.324 A 1.054 1.054 0 0 1 822.473 105.614 Q 822.347 106.056 821.777 106.056 Z M 27.466 106.056 L 0.586 106.056 A 0.663 0.663 0 0 1 0.33 106.011 Q 0.043 105.891 0.006 105.46 A 1.579 1.579 0 0 1 0 105.324 L 0.293 2.272 A 0.844 0.844 0 0 1 0.322 2.04 Q 0.396 1.78 0.662 1.711 A 0.863 0.863 0 0 1 0.879 1.686 L 29.736 1.686 A 29.342 29.342 0 0 1 45.044 5.788 Q 51.782 9.889 55.664 16.664 Q 59.546 23.439 59.546 31.349 A 25.404 25.404 0 0 1 56.616 43.361 A 34.508 34.508 0 0 1 53.412 48.396 A 26.535 26.535 0 0 1 49.658 52.37 Q 53.979 56.691 56.396 62.404 Q 58.813 68.117 58.813 74.416 A 31.036 31.036 0 0 1 54.639 90.309 A 32.519 32.519 0 0 1 43.286 101.772 A 30.041 30.041 0 0 1 27.466 106.056 Z M 918.311 106.056 L 901.465 106.056 A 1.054 1.054 0 0 1 901.175 106.02 Q 900.732 105.893 900.732 105.324 L 901.025 2.272 A 0.844 0.844 0 0 1 901.054 2.04 Q 901.129 1.78 901.394 1.711 A 0.863 0.863 0 0 1 901.611 1.686 L 930.469 1.686 Q 944.238 1.686 952.258 10.073 A 27.984 27.984 0 0 1 959.243 23.297 Q 960.278 27.702 960.278 32.887 A 44.967 44.967 0 0 1 959.361 42.18 A 34.271 34.271 0 0 1 956.104 51.271 A 34.608 34.608 0 0 1 950.537 58.893 A 29.657 29.657 0 0 1 945.117 63.283 A 26.947 26.947 0 0 1 930.469 67.531 L 919.043 67.531 L 919.043 105.324 A 1.054 1.054 0 0 1 919.007 105.614 Q 918.88 106.056 918.311 106.056 Z M 428.979 105.91 L 402.1 106.056 A 1.054 1.054 0 0 1 401.81 106.02 Q 401.367 105.893 401.367 105.324 L 401.66 2.272 A 0.844 0.844 0 0 1 401.689 2.04 Q 401.764 1.78 402.029 1.711 A 0.863 0.863 0 0 1 402.246 1.686 L 430.298 1.54 A 32.669 32.669 0 0 1 431.157 1.528 Q 438.996 1.528 445.386 5.348 A 30.547 30.547 0 0 1 456.262 16.225 Q 460.327 23.073 460.327 31.349 L 460.327 74.416 A 30.898 30.898 0 0 1 456.152 90.236 Q 451.904 97.341 444.873 101.552 A 30.819 30.819 0 0 1 431.166 105.81 A 37.013 37.013 0 0 1 428.979 105.91 Z M 538.696 105.91 L 511.816 106.056 A 1.054 1.054 0 0 1 511.527 106.02 Q 511.084 105.893 511.084 105.324 L 511.377 2.272 A 0.844 0.844 0 0 1 511.406 2.04 Q 511.48 1.78 511.746 1.711 A 0.863 0.863 0 0 1 511.963 1.686 L 540.015 1.54 A 32.669 32.669 0 0 1 540.874 1.528 Q 548.713 1.528 555.103 5.348 A 30.547 30.547 0 0 1 565.979 16.225 Q 570.044 23.073 570.044 31.349 L 570.044 74.416 A 30.898 30.898 0 0 1 565.869 90.236 Q 561.621 97.341 554.59 101.552 A 30.819 30.819 0 0 1 540.883 105.81 A 37.013 37.013 0 0 1 538.696 105.91 Z M 830.493 77.419 L 830.64 29.885 Q 830.64 21.535 834.668 14.87 A 30.422 30.422 0 0 1 845.361 4.067 Q 852.1 0.002 860.01 0.002 A 28.613 28.613 0 0 1 869.829 1.655 A 26.424 26.424 0 0 1 874.731 4.03 A 30.73 30.73 0 0 1 885.315 14.833 A 29.084 29.084 0 0 1 889.307 29.82 A 34.345 34.345 0 0 1 889.307 29.885 L 889.453 77.419 A 29.363 29.363 0 0 1 885.498 92.433 A 31.157 31.157 0 0 1 874.805 103.42 A 27.672 27.672 0 0 1 860.01 107.521 A 27.786 27.786 0 0 1 845.288 103.42 A 31.565 31.565 0 0 1 834.558 92.47 Q 830.493 85.622 830.493 77.419 Z M 430.298 19.484 L 419.824 19.631 L 419.678 87.599 L 428.979 87.599 A 13.127 13.127 0 0 0 434.542 86.438 A 12.881 12.881 0 0 0 438.354 83.718 A 12.808 12.808 0 0 0 442.163 74.458 A 15.431 15.431 0 0 0 442.163 74.416 L 442.163 31.203 A 11.417 11.417 0 0 0 438.756 23.001 A 14.807 14.807 0 0 0 438.647 22.89 Q 435.132 19.338 430.298 19.484 Z M 540.015 19.484 L 529.541 19.631 L 529.395 87.599 L 538.696 87.599 A 13.127 13.127 0 0 0 544.259 86.438 A 12.881 12.881 0 0 0 548.071 83.718 A 12.808 12.808 0 0 0 551.88 74.458 A 15.431 15.431 0 0 0 551.88 74.416 L 551.88 31.203 A 11.417 11.417 0 0 0 548.473 23.001 A 14.807 14.807 0 0 0 548.364 22.89 Q 544.849 19.338 540.015 19.484 Z M 871.289 77.419 L 871.143 29.885 A 13.027 13.027 0 0 0 870.358 25.297 A 11.704 11.704 0 0 0 867.993 21.462 Q 864.844 18.019 860.01 18.019 A 10.644 10.644 0 0 0 852.255 21.232 A 13.321 13.321 0 0 0 852.1 21.388 A 11.446 11.446 0 0 0 848.833 28.934 A 15.214 15.214 0 0 0 848.804 29.885 L 848.804 77.419 Q 848.804 82.326 852.1 85.878 A 11.33 11.33 0 0 0 855.472 88.424 A 10.292 10.292 0 0 0 860.01 89.43 A 10.125 10.125 0 0 0 867.114 86.548 A 13.955 13.955 0 0 0 867.92 85.732 A 13.328 13.328 0 0 0 870.338 82.063 A 11.549 11.549 0 0 0 871.289 77.419 Z M 94.556 30.617 L 93.896 36.183 L 87.158 78.298 L 101.587 78.298 L 95.435 36.183 L 94.556 30.617 Z M 930.469 19.484 L 919.043 19.631 L 919.043 49.367 L 930.469 49.367 A 9.348 9.348 0 0 0 936.729 46.95 A 14.506 14.506 0 0 0 938.745 44.789 A 16.325 16.325 0 0 0 941.635 38.578 Q 942.261 35.977 942.261 32.887 A 17.881 17.881 0 0 0 941.761 28.55 A 13.076 13.076 0 0 0 939.111 23.256 A 10.302 10.302 0 0 0 931.967 19.559 A 14.663 14.663 0 0 0 930.469 19.484 Z M 27.466 61.232 L 18.311 61.232 L 18.164 87.746 L 27.466 87.746 A 12.54 12.54 0 0 0 36.585 83.974 A 15.707 15.707 0 0 0 36.768 83.791 A 13.342 13.342 0 0 0 39.959 78.728 A 13.27 13.27 0 0 0 40.649 74.416 A 12.669 12.669 0 0 0 36.888 65.236 A 15.617 15.617 0 0 0 36.768 65.114 A 12.942 12.942 0 0 0 31.465 61.824 A 13.25 13.25 0 0 0 27.466 61.232 Z M 1064.648 19.631 L 1051.758 19.631 L 1051.758 43.215 L 1064.648 43.215 A 11.45 11.45 0 0 0 1072.2 40.387 A 15.037 15.037 0 0 0 1072.888 39.772 A 11.14 11.14 0 0 0 1076.509 31.698 A 13.465 13.465 0 0 0 1076.514 31.349 A 11.179 11.179 0 0 0 1073.114 23.225 A 14.345 14.345 0 0 0 1072.998 23.11 A 11.875 11.875 0 0 0 1068.626 20.297 A 11.727 11.727 0 0 0 1064.648 19.631 Z M 29.736 19.484 L 18.311 19.484 L 18.311 43.068 L 29.736 43.068 A 11.852 11.852 0 0 0 33.891 42.366 A 10.416 10.416 0 0 0 38.159 39.369 A 13.947 13.947 0 0 0 40.348 36.045 A 11.112 11.112 0 0 0 41.382 31.349 A 11.566 11.566 0 0 0 37.939 23.036 Q 34.497 19.484 29.736 19.484 Z" vector-effect="non-scaling-stroke"/></g></svg>